# xmcd
#
# Track frame offsets:
#	150
#	13904
#	32198
#	45203
#	61869
#	78470
#	93097
#	102385
#	131765
#	147554
#	167239
#	180985
#	199886
#	210267
#
# Disc length: 2979 seconds
#
# Revision: 1
# Processed by: cddbd v1.5.2PL0 Copyright (c) Steve Scherf et al.
# Submitted via: audiograbber 1.83.01
#
DISCID=ba0ba10e
DTITLE=Various Arists - New Rides of The Furious Swampriders
DYEAR=2012
DGENRE=New Country
TTITLE0=Wovenhand - The Threshingfloor
TTITLE1=Deborah Harry - Lucky Jim
TTITLE2=The Raymen - When death´s black train is coming to town
TTITLE3=M. Walking On The Water - Enjoy the silence
TTITLE4=The Dad Horse Experience - Kingdom it will come
TTITLE5=Sixteen Horsepowers - De-Railed
TTITLE6=The Perc - Sleeping dog
TTITLE7=Lydia Lunch, Dave Alvin and The JLP Sessions Project - Walkin down the st
TTITLE7=reet
TTITLE8=Kirschbaum Weisshoff Trio - Heartbreak Hotel
TTITLE9=The Walkabouts - Soul thief
TTITLE10=Velvetone W/The Fat Honks - The River
TTITLE11=Golden Kanine - Law of probable outcome
TTITLE12=Johnny Dowd - Constant waiting
TTITLE13=Harry Payuta - Take you home
EXTD=
EXTT0=
EXTT1=
EXTT2=
EXTT3=
EXTT4=
EXTT5=
EXTT6=
EXTT7=
EXTT8=
EXTT9=
EXTT10=
EXTT11=
EXTT12=
EXTT13=
PLAYORDER=
